# xmcd
#
# Track frame offsets:
# 150
# 13395
# 24225
# 47460
# 62655
# 80735
# 97295
# 113785
# 129040
# 144995
# 157122
# 181892
#
# Disc length: 2572 seconds
#
#
# Revision: 0
# Processed by: cddbd v1.5.1PL0 Copyright (c) Steve Scherf et al.
# Submitted via: FreeRIP 2.92 
#
DISCID=9a0a0a0c
DTITLE=Kathryn Williams - Old Low Light
DYEAR=1900
DGENRE=Pop-Folk
TTITLE0=Little Black Numbers
TTITLE1=White, Blue And Red
TTITLE2=Mirrorball
TTITLE3=Devices
TTITLE4=Daydream And Saunter
TTITLE5=Beatles
TTITLE6=Wolf
TTITLE7=Tradition
TTITLE8=Swimmer
TTITLE9=On For You
TTITLE10=No One Takes You Home
TTITLE11=3am Phonecall
EXTD=
EXTT0=
EXTT1=
EXTT2=
EXTT3=
EXTT4=
EXTT5=
EXTT6=
EXTT7=
EXTT8=
EXTT9=
EXTT10=
EXTT11=
PLAYORDER=
